<svg xmlns="http://www.w3.org/2000/svg" viewBox="56 56 400 400" width="512" height="512">
  <rect x="56" y="56" width="400" height="400" rx="80" fill="#EDD8A3"/>
  <ellipse cx="146" cy="262" rx="18" ry="20" fill="#8d5524"/>
  <ellipse cx="366" cy="262" rx="18" ry="20" fill="#8d5524"/>
  <ellipse cx="256" cy="252" rx="110" ry="120" fill="#8d5524"/>
  <path d="M150,212 C150,132 198,90 256,90 C314,90 362,132 362,212 C362,200 346,190 328,190 L184,190 C166,190 150,200 150,212 Z" fill="#141821"/>
  <circle cx="172" cy="166" r="22" fill="#141821"/>
  <circle cx="196" cy="128" r="24" fill="#141821"/>
  <circle cx="230" cy="104" r="25" fill="#141821"/>
  <circle cx="268" cy="100" r="25" fill="#141821"/>
  <circle cx="304" cy="114" r="24" fill="#141821"/>
  <circle cx="334" cy="144" r="23" fill="#141821"/>
  <circle cx="352" cy="182" r="20" fill="#141821"/>
  <circle cx="160" cy="196" r="18" fill="#141821"/>
  <path d="M184,202 Q210,190 234,198" fill="none" stroke="#141821" stroke-width="14" stroke-linecap="round"/>
  <path d="M278,198 Q302,190 328,202" fill="none" stroke="#141821" stroke-width="14" stroke-linecap="round"/>
  <path d="M180,232 L142,248" stroke="#141821" stroke-width="11" stroke-linecap="round"/>
  <path d="M332,232 L370,248" stroke="#141821" stroke-width="11" stroke-linecap="round"/>
  <path d="M246,234 Q256,224 266,234" fill="none" stroke="#141821" stroke-width="11" stroke-linecap="round"/>
  <rect x="176" y="212" width="74" height="60" rx="27" fill="#141821"/>
  <rect x="262" y="212" width="74" height="60" rx="27" fill="#141821"/>
  <path d="M198,228 L216,252" stroke="#EDD8A3" stroke-width="8" stroke-linecap="round" opacity="0.85"/>
  <path d="M284,228 L302,252" stroke="#EDD8A3" stroke-width="8" stroke-linecap="round" opacity="0.85"/>
  <path d="M256,300 C238,290 220,292 204,298 C188,304 176,302 166,292 C166,316 184,328 206,326 C228,324 244,314 256,312 C268,314 284,324 306,326 C328,328 346,316 346,292 C336,302 324,304 308,298 C292,292 274,290 256,300 Z" fill="#141821"/>
  <path d="M216,332 Q256,378 296,332 Q256,352 216,332 Z" fill="#EDD8A3"/>
  <path d="M256,414 L212,393 C203,389 197,395 199,403 L209,433 C211,441 220,443 226,437 Z" fill="#141821"/>
  <path d="M256,414 L300,393 C309,389 315,395 313,403 L303,433 C301,441 292,443 286,437 Z" fill="#141821"/>
  <circle cx="256" cy="414" r="11" fill="#141821"/>
  <circle cx="256" cy="414" r="6" fill="#EDD8A3"/>
</svg>
